<svg xmlns="http://www.w3.org/2000/svg" height="178.773" width="575.533" version="1.2" xmlns:xlink="http://www.w3.org/1999/xlink" viewBox="0 0 431.646 134.075"><defs><symbol id="a" overflow="visible"><path d="M3.703-1.703h.985v-.61h-.985v-4.234h-.906L.28-2.313v.61h2.64L2.923 0h.781zm-2.64-.61c.515-.859 1.921-3.218 1.921-3.78v3.78z"/></symbol><symbol id="b" overflow="visible"><path d="M5.281-3.531c-.343.906-.812 2.14-.922 2.61h-.015c-.047-.22-.172-.579-.313-1L2.47-6.048l-.344-.875H1V0h.781v-6.187c.063.328.469 1.406.719 2.093L3.984-.219h.72L6.03-3.688c.313-.812.407-1.062.485-1.265.093-.297.359-1.016.406-1.234h.016V0h.78v-6.922h-1.14z"/></symbol><symbol id="c" overflow="visible"><path d="M6.11-6.922h-.891v3.031h-3.39v-3.03H.937V0h.89v-3.297h3.39V0h.891z"/></symbol><symbol id="d" overflow="visible"><path d="M3.984-4.031v-.39H.422v.577h2.515L.281-.406V0H4v-.625H2.547c-.125 0-.25.016-.36.016h-.859z"/></symbol><symbol id="e" overflow="visible"><path d="M5.797-1.14c-.578.39-.922.609-1.906.609-1.438 0-2.329-1.5-2.329-2.938 0-1.36.813-2.922 2.344-2.922.703 0 1.157.172 1.703.516l.141-.813c-.422-.203-1.188-.343-1.828-.343C2.078-7.031.656-5.47.656-3.375.656-1.797 1.844.109 3.922.109c.906 0 1.297-.156 1.937-.562z"/></symbol><symbol id="f" overflow="visible"><path d="M1.828-6.922h-.89V0h4.03v-.656c-.874.015-1.765.015-2.655.015h-.485z"/></symbol><symbol id="g" overflow="visible"><path d="M3.672-4.188l2.672-2.734h-.922L1.797-3.219v-3.703H.953V0h.844v-2.266l1.328-1.359L5.578 0h.906z"/></symbol><symbol id="h" overflow="visible"><path d="M2.984-6.766h-.203c-.594.61-1.422.641-1.89.672v.578c.328-.015.797-.03 1.297-.25v5.188H.953V0h3.281v-.578h-1.25z"/></symbol><symbol id="i" overflow="visible"><path d="M3.766-6.922h-.891L.281 0h.735l.765-2.031h2.907L5.438 0h.921zm.703 4.328H2l.64-1.797c.204-.593.516-1.437.594-1.812.032.14.094.39.328 1.047z"/></symbol><symbol id="j" overflow="visible"><path d="M4.328-6.922h-.75v2.938a2.288 2.288 0 0 0-1.453-.547C1.141-4.531.359-3.5.359-2.22.36-.906 1.125.11 2.08.11c.327 0 .905-.093 1.468-.625V0h.781zM3.547-1.39c0 .141-.016.328-.328.61a1.09 1.09 0 0 1-.735.281c-.625 0-1.343-.469-1.343-1.703 0-1.313.859-1.719 1.437-1.719.453 0 .75.219.969.547z"/></symbol><symbol id="k" overflow="visible"><path d="M1.563-2.14c0-.985.718-1.704 1.703-1.735v-.656c-.891 0-1.438.5-1.75.953v-.906H.813V0h.75z"/></symbol><symbol id="l" overflow="visible"><path d="M4.125-2.188c0-.328-.016-1.078-.39-1.687a1.629 1.629 0 0 0-1.376-.719C1.25-4.594.344-3.53.344-2.25.344-.937 1.312.11 2.5.11a2.81 2.81 0 0 0 1.594-.516l-.063-.657A2.35 2.35 0 0 1 2.516-.5c-.797 0-1.438-.703-1.47-1.688zm-3.031-.546c.156-.75.687-1.25 1.265-1.25.516 0 1.063.328 1.204 1.25z"/></symbol><symbol id="m" overflow="visible"><path d="M3.422-4.281a3.19 3.19 0 0 0-1.438-.313c-.25 0-1.656 0-1.656 1.297 0 .5.297.813.547 1 .297.219.516.266 1.063.375.359.063.937.188.937.719 0 .687-.781.687-.938.687C1.141-.516.579-.89.407-1L.28-.328c.313.156.86.437 1.672.437.188 0 .735 0 1.156-.312.313-.25.485-.64.485-1.078 0-.547-.375-.875-.39-.907-.391-.359-.657-.421-1.157-.5-.547-.109-1.016-.218-1.016-.703C1.03-4 1.75-4 1.89-4c.312 0 .843.031 1.406.375z"/></symbol><symbol id="w" overflow="visible"><path d="M.953-6.922V0h2.625c1.703 0 3.047-1.516 3.047-3.406 0-1.922-1.344-3.516-3.062-3.516zm.86 6.36V-6.36h1.53c1.391 0 2.423 1.203 2.423 2.953 0 1.703-1.032 2.844-2.422 2.844z"/></symbol><symbol id="x" overflow="visible"><path d="M3.984-2.875c0-1.016-.734-1.719-1.656-1.719-.64 0-1.094.157-1.562.422l.062.656A2.544 2.544 0 0 1 2.328-4c.469 0 .875.39.875 1.125v.438C1.703-2.422.438-2 .438-1.125c0 .422.265 1.234 1.14 1.234.14 0 1.078-.015 1.656-.468V0h.75zm-.78 1.563c0 .187 0 .437-.345.625-.28.171-.672.187-.78.187-.47 0-.923-.234-.923-.64 0-.704 1.61-.766 2.047-.798z"/></symbol><symbol id="y" overflow="visible"><path d="M1.75-3.844h1.406v-.578H1.75v-1.266h-.687v1.266H.188v.578h.843v2.656c0 .594.14 1.297.828 1.297s1.204-.25 1.454-.375l-.157-.593a1.407 1.407 0 0 1-.906.328c-.36 0-.5-.297-.5-.828z"/></symbol><symbol id="J" overflow="visible"><path d="M4.172-3.25c1.031-.297 1.703-1 1.703-1.813 0-.984-1.094-1.859-2.516-1.859H.953V0h.86v-3.156H3.39L5.266 0h.89zm-2.36-.516v-2.593H3.25c1.156 0 1.813.593 1.813 1.296S4.421-3.766 3.25-3.766z"/></symbol><symbol id="K" overflow="visible"><path d="M4.344-2.969c0-.656-.157-1.562-1.375-1.562-.61 0-1.094.297-1.407.718v-3.109h-.75V0h.766v-2.438c0-.656.25-1.484 1.016-1.484.953 0 .969.703.969 1.016V0h.78z"/></symbol><symbol id="L" overflow="visible"><path d="M1.625-6.781h-.89v.89h.89zm-.063 2.36h-.75V0h.75z"/></symbol><symbol id="M" overflow="visible"><path d="M1.594-.453c.312.281.75.562 1.343.562.97 0 1.844-.984 1.844-2.328 0-1.203-.625-2.312-1.578-2.312-.594 0-1.172.203-1.64.593v-.484h-.75v6.36h.78zm0-2.86a1.259 1.259 0 0 1 1.062-.578c.75 0 1.344.75 1.344 1.672C4-1.203 3.297-.5 2.547-.5c-.39 0-.656-.203-.86-.469-.093-.14-.093-.172-.093-.344z"/></symbol><symbol id="N" overflow="visible"><path d="M1.563-6.922h-.75V0h.75z"/></symbol><symbol id="O" overflow="visible"><path d="M4.094-4.172c-.594-.328-.938-.422-1.547-.422C1.172-4.594.359-3.39.359-2.219.36-.984 1.266.11 2.516.11c.53 0 1.078-.14 1.625-.515l-.063-.657a2.517 2.517 0 0 1-1.562.532c-.828 0-1.375-.719-1.375-1.688 0-.781.359-1.734 1.421-1.734.516 0 .86.078 1.407.437z"/></symbol><symbol id="P" overflow="visible"><path d="M9.266-6.922h-.72l-.905 3.14c-.266.876-.75 2.563-.797 3.063 0-.015-.063-.531-.719-2.797l-.984-3.406h-.797l-.907 3.11c-.218.765-.718 2.515-.765 3.078h-.016c-.031-.407-.297-1.375-.39-1.703l-.47-1.672L1-6.922H.14L2.157 0h.813l1-3.453c.203-.734.64-2.219.703-2.734.047.296.281 1.25.547 2.187l1.156 4h.86z"/></symbol><symbol id="Q" overflow="visible"><path d="M1.828-6.922h-.89V0h.89z"/></symbol><symbol id="R" overflow="visible"><path d="M4.344-2.969c0-.656-.157-1.562-1.375-1.562-.89 0-1.39.672-1.438.75v-.703H.812V0h.766v-2.438c0-.656.25-1.484 1.016-1.484.953 0 .969.703.969 1.016V0h.78z"/></symbol><symbol id="S" overflow="visible"><path d="M4.344-4.422h-.782v2.89C3.563-.781 3-.437 2.36-.437c-.703 0-.78-.265-.78-.687v-3.297H.812v3.328C.813-.375 1.03.11 1.859.11c.532 0 1.235-.156 1.735-.593V0h.75z"/></symbol><symbol id="T" overflow="visible"><path d="M4.672-2.188c0-1.343-1-2.406-2.172-2.406C1.266-4.594.297-3.5.297-2.187.297-.875 1.313.108 2.484.108c1.188 0 2.188-1 2.188-2.296zM2.484-.53c-.687 0-1.406-.563-1.406-1.766s.75-1.687 1.406-1.687c.703 0 1.407.515 1.407 1.687 0 1.188-.672 1.766-1.407 1.766z"/></symbol><symbol id="n" overflow="visible"><path d="M1.672-3.828c.375.031.61.172.812.344l.078-.407a1.843 1.843 0 0 0-.89-.328v-.265h-.344v.28c-.672.11-1 .657-1 1.141 0 .25.125.938 1 1.141v1.594a1.901 1.901 0 0 1-1-.422l-.062.406c.14.11.5.344 1.062.407v.265h.344V.047c.594-.094.984-.64.984-1.219 0-.484-.297-1.078-.984-1.219zm-.344 1.344a.688.688 0 0 1-.562-.657c0-.312.203-.593.562-.672zm.344.64a.774.774 0 0 1 .547.75c0 .313-.172.64-.547.75z"/></symbol><symbol id="o" overflow="visible"><path d="M1.797-4.063h-.125c-.36.375-.86.391-1.14.407v.344c.202-.016.484-.016.78-.141v3.11h-.75V0h1.97v-.344h-.735z"/></symbol><symbol id="p" overflow="visible"><path d="M1.047-1.125l-.75.734V0h2.39v-.422H.735c.187-.172.64-.61.827-.781.11-.11.422-.36.532-.469.265-.266.593-.594.593-1.094 0-.687-.484-1.296-1.28-1.296-.673 0-1.016.468-1.157.984.078.11.11.14.11.156.015.016.077.094.14.172.11-.453.281-.922.828-.922.563 0 .875.453.875.906 0 .516-.344.86-.703 1.22z"/></symbol><symbol id="q" overflow="visible"><path d="M.547-3.078a.998.998 0 0 1 .937-.625c.313 0 .594.172.594.562 0 .36-.234.72-.61.797-.03 0-.046 0-.468.047v.36h.422c.656 0 .781.562.781.859 0 .469-.281.844-.734.844-.422 0-.89-.204-1.157-.61l-.062.36a1.51 1.51 0 0 0 1.234.609c.72 0 1.25-.578 1.25-1.203 0-.547-.422-.922-.828-1.047.453-.234.672-.64.672-1.016 0-.515-.5-.922-1.094-.922-.468 0-.89.25-1.156.657z"/></symbol><symbol id="r" overflow="visible"><path d="M2.219-1.016h.594v-.375h-.594v-2.53h-.531L.171-1.392v.375H1.75V0h.469zM.64-1.39c.312-.515 1.156-1.937 1.156-2.265v2.265z"/></symbol><symbol id="s" overflow="visible"><path d="M.922-3.547h1.562v-.375h-2v2.203h.391c.11-.234.328-.468.672-.468.281 0 .61.25.61.953 0 1-.735 1-.782 1-.406 0-.766-.235-.938-.563l-.203.344c.25.344.657.578 1.141.578.719 0 1.312-.578 1.312-1.344 0-.75-.515-1.343-1.125-1.343a.938.938 0 0 0-.64.25z"/></symbol><symbol id="t" overflow="visible"><path d="M2.484-3.938c-.312-.124-.547-.124-.64-.124C1-4.063.25-3.22.25-1.922.25-.234 1 .125 1.5.125c.36 0 .625-.125.86-.406.265-.297.374-.578.374-1.047 0-.766-.39-1.438-.968-1.438a1.31 1.31 0 0 0-1.016.5c.078-.968.547-1.437 1.11-1.437.218 0 .421.031.624.125zM.766-1.312v-.172c0-.438.265-.922.765-.922.281 0 .453.156.578.375.125.219.141.437.141.703 0 .203 0 .484-.156.719-.094.171-.25.375-.594.375-.625 0-.719-.875-.734-1.078z"/></symbol><symbol id="u" overflow="visible"><path d="M1.39-3.5h.938C1.438-2.531.906-1.328.906.063h.5c0-1.797.86-3.079 1.328-3.594v-.39H.25v.421z"/></symbol><symbol id="v" overflow="visible"><path d="M1.922-2.125c.531-.172.734-.563.734-.89 0-.563-.515-1.047-1.156-1.047-.672 0-1.172.5-1.172 1.046 0 .328.203.72.75.891-.437.156-.828.531-.828 1.047C.25-.422.797.125 1.484.125c.72 0 1.25-.563 1.25-1.203 0-.547-.421-.906-.812-1.047zM1.5-2.297c-.469 0-.75-.297-.75-.719 0-.406.297-.687.734-.687.485 0 .75.297.75.687 0 .438-.312.72-.734.72zm0 2.063c-.422 0-.766-.282-.766-.844 0-.64.438-.86.75-.86.36 0 .766.235.766.86 0 .578-.375.844-.75.844z"/></symbol><symbol id="z" overflow="visible"><path d="M2.734-1.953c0-.469-.03-1.031-.28-1.516a1.103 1.103 0 0 0-.954-.594c-.36 0-.781.172-1.016.704-.203.437-.234.937-.234 1.406 0 .469.031.906.203 1.344.234.578.703.734 1.031.734.438 0 .813-.234 1.016-.656.172-.39.234-.781.234-1.422zM1.5-.234c-.313 0-.563-.22-.688-.657C.72-1.234.72-1.563.72-2.016c0-.39 0-.75.094-1.078.046-.11.187-.594.671-.594.47 0 .625.454.672.563.11.328.11.734.11 1.11 0 .39 0 .765-.11 1.14-.156.547-.469.64-.656.64z"/></symbol><symbol id="A" overflow="visible"><path d="M2.484-1.313c0-.203-.015-.656-.25-1.015a.982.982 0 0 0-.828-.438c-.656 0-1.203.641-1.203 1.407C.203-.563.781.062 1.5.062c.375 0 .719-.14.953-.312l-.031-.39a1.473 1.473 0 0 1-.906.343C1.03-.297.64-.719.625-1.312zM.656-1.64c.094-.453.422-.75.75-.75.313 0 .656.203.735.75z"/></symbol><symbol id="B" overflow="visible"><path d="M2.39-1.734c0-.61-.437-1.032-.984-1.032-.39 0-.672.11-.953.266l.047.39c.313-.218.61-.296.906-.296.282 0 .516.234.516.687v.25c-.906.016-1.656.266-1.656.797 0 .25.156.734.687.734.078 0 .64-.015.985-.28V0h.453zm-.468.937c0 .125 0 .266-.203.39a1.13 1.13 0 0 1-.469.11c-.281 0-.563-.14-.563-.39 0-.422.97-.47 1.235-.47z"/></symbol><symbol id="C" overflow="visible"><path d="M3.906-4.156h-.469L2.641-2.11c-.094.25-.547 1.406-.594 1.671H2.03c-.047-.234-.297-.89-.36-1.03L.642-4.157H.078L1.718 0h.548z"/></symbol><symbol id="D" overflow="visible"><path d="M.938-4.156H.483V0h.454z"/></symbol><symbol id="E" overflow="visible"><path d="M2.61-2.656h-.47v1.734c0 .453-.343.656-.718.656C1-.266.953-.422.953-.672v-1.984H.484v2c0 .437.141.719.641.719.313 0 .734-.094 1.031-.344V0h.453z"/></symbol><symbol id="F" overflow="visible"><path d="M2.813-1.313c0-.812-.61-1.453-1.313-1.453-.734 0-1.328.672-1.328 1.454 0 .78.625 1.375 1.312 1.375.72 0 1.329-.594 1.329-1.375zm-1.329 1c-.406 0-.843-.343-.843-1.062 0-.719.453-1.016.843-1.016.422 0 .86.313.86 1.016 0 .703-.406 1.063-.86 1.063z"/></symbol><symbol id="G" overflow="visible"><path d="M1.047-2.313h.672v-.343H1.03v-.719c0-.438.406-.484.563-.484.125 0 .281.015.484.109v-.406C2-4.172 1.813-4.22 1.594-4.22c-.563 0-.985.422-.985 1.016v.547H.156v.344H.61V0h.438z"/></symbol><symbol id="H" overflow="visible"><path d="M2.25-4.156h-.516L.172 0h.437l.47-1.219h1.734L3.265 0h.547zm.438 2.593H1.202l.375-1.078c.14-.343.313-.859.36-1.078.015.078.062.235.203.625z"/></symbol><symbol id="I" overflow="visible"><path d="M2.453-2.5c-.36-.203-.562-.266-.922-.266C.703-2.766.22-2.03.22-1.328c0 .734.547 1.39 1.297 1.39.312 0 .64-.078.968-.296l-.03-.407a1.557 1.557 0 0 1-.938.329c-.5 0-.828-.438-.828-1.016 0-.469.218-1.047.843-1.047.313 0 .516.047.844.266z"/></symbol><symbol id="U" overflow="visible"><path d="M2.61-1.781c0-.39-.094-.938-.829-.938-.531 0-.828.406-.86.453v-.422H.485V0h.47v-1.469c0-.39.14-.89.609-.89.562 0 .578.422.578.625V0h.468z"/></symbol><symbol id="V" overflow="visible"><path d="M.953-.281c.188.172.453.344.813.344.578 0 1.109-.579 1.109-1.391 0-.719-.375-1.39-.953-1.39-.36 0-.703.124-.985.359v-.297H.484v3.812h.47zm0-1.72a.785.785 0 0 1 .64-.343c.454 0 .813.453.813 1.016 0 .61-.422 1.031-.875 1.031-.234 0-.39-.125-.515-.281C.953-.672.953-.688.953-.797z"/></symbol><symbol id="W" overflow="visible"><path d="M2.594-4.156H2.14v1.765a1.327 1.327 0 0 0-.86-.328c-.593 0-1.062.625-1.062 1.39C.219-.546.672.064 1.25.064c.188 0 .547-.047.875-.375V0h.469zM2.125-.828c0 .078 0 .187-.188.36a.661.661 0 0 1-.453.171c-.359 0-.797-.281-.797-1.031 0-.781.516-1.031.86-1.031.266 0 .453.14.578.328z"/></symbol><symbol id="X" overflow="visible"><path d="M1.625-4.484a3.187 3.187 0 0 0-.875 1.28A4.996 4.996 0 0 0 .469-1.5c0 1.938.86 2.734 1.156 3h.36C1.702 1.203.936.437.936-1.5c0-.328.016-1.031.266-1.734.25-.703.594-1.063.781-1.25z"/></symbol><symbol id="Y" overflow="visible"><path d="M.703 1.5c.188-.188.594-.547.86-1.281.25-.64.28-1.282.28-1.719 0-1.922-.859-2.719-1.14-2.984H.328c.297.28 1.047 1.062 1.047 2.984 0 .344-.016 1.047-.25 1.75A3.202 3.202 0 0 1 .328 1.5z"/></symbol><symbol id="Z" overflow="visible"><path d="M1.078 0v-.5h-.5V0h.156L.578.75h.25z"/></symbol><symbol id="aa" overflow="visible"><path d="M.969-4.063H.438v.532h.53zM.938-2.655H.483V0h.454z"/></symbol></defs><path d="M117.047 10.359v113.36m56.679-113.36v113.36m56.68-113.36v113.36m56.68-113.36v113.36m113.35-113.36v113.36" stroke-opacity=".5" stroke="red" stroke-miterlimit="10" stroke-width=".797" fill="none"/><use y="20.988" x="9.963" xlink:href="#a"/><use y="20.988" x="18.262" xlink:href="#b"/><use y="20.988" x="26.979" xlink:href="#c"/><use y="20.988" x="34.036" xlink:href="#d"/><use y="20.988" x="41.694" xlink:href="#e"/><use y="20.988" x="48.059" xlink:href="#f"/><use y="20.988" x="53.456" xlink:href="#g"/><path stroke-linejoin="round" d="M67.457 20.988h7.082v-7.086h7.086v7.086h7.086v-7.086h7.082v7.086h7.086v-7.086h7.086v7.086h7.082v-7.086h7.086v7.086h7.086v-7.086h7.082v7.086h7.086v-7.086h7.086v7.086h7.082v-7.086h7.086v7.086h7.085v-7.086h7.08v7.086h7.09v-7.086h7.08v7.086h7.09v-7.086h7.08v7.086h7.09v-7.086h7.08v7.086h7.09v-7.086h7.08v7.086h7.09v-7.086h7.08v7.086h7.09v-7.086h7.08v7.086h7.08v-7.086h7.09v7.086h7.09v-7.086h7.08v7.086h7.08v-7.086h7.09v7.086h7.08v-7.086h7.09v7.086h7.08v-7.086h7.09v7.086h7.08v-7.086h7.09v7.086h7.08v-7.086h7.09v7.086h7.08v-7.086h7.08v7.086h7.09v-7.086h7.09v7.086h7.08v-7.086h7.08v7.086h7.09v-7.086h7.08" stroke="#000" stroke-linecap="round" stroke-miterlimit="10" stroke-width=".664" fill="none"/><use y="35.157" x="9.963" xlink:href="#h"/><use y="35.157" x="18.262" xlink:href="#b"/><use y="35.157" x="26.979" xlink:href="#c"/><use y="35.157" x="34.036" xlink:href="#d"/><use y="35.157" x="41.694" xlink:href="#e"/><use y="35.157" x="48.059" xlink:href="#f"/><use y="35.157" x="53.456" xlink:href="#g"/><path stroke-linejoin="round" d="M67.457 35.156h7.082v-7.082h28.34v7.082h28.34v-7.082h28.336v7.082h28.341v-7.082h28.34v7.082h28.34v-7.082h28.33v7.082h28.34v-7.082h28.34v7.082h28.34v-7.082h28.34v7.082h28.34v-7.082h7.08" stroke="#000" stroke-linecap="round" stroke-miterlimit="10" stroke-width=".664" fill="none"/><use y="49.326" x="27.965" xlink:href="#i"/><use y="49.326" x="34.607" xlink:href="#j"/><use y="49.326" x="39.755" xlink:href="#j"/><use y="49.326" x="44.902" xlink:href="#k"/><use y="49.326" x="48.307" xlink:href="#l"/><use y="49.326" x="52.734" xlink:href="#m"/><use y="49.326" x="56.553" xlink:href="#m"/><path stroke-linejoin="round" d="M67.457 45.785h7.082" stroke="red" stroke-linecap="round" stroke-miterlimit="10" stroke-width=".664" fill="none"/><path stroke-linejoin="round" d="M74.54 45.785l.71-3.543h6.375l.707 3.543-.707 3.543H75.25l-.71-3.543" stroke="#000" stroke-linecap="round" stroke-miterlimit="10" stroke-width=".664" fill="#7f7f7f"/><path stroke-linejoin="round" d="M82.332 45.785l.711-3.543h48.176l.707 3.543-.707 3.543H83.043l-.711-3.543" stroke="#000" stroke-linecap="round" stroke-miterlimit="10" stroke-width=".664" fill="#00acef"/><use y="47.859" x="99.657" xlink:href="#n"/><use y="47.859" x="102.646" xlink:href="#o"/><use y="47.859" x="105.635" xlink:href="#p"/><use y="47.859" x="108.623" xlink:href="#q"/><use y="47.859" x="111.612" xlink:href="#r"/><path stroke-linejoin="round" d="M131.926 45.785l.707-3.543h5.668l.711 3.543-.711 3.543h-5.668l-.707-3.543" stroke="#000" stroke-linecap="round" stroke-miterlimit="10" stroke-width=".664" fill="#7f7f7f"/><path stroke-linejoin="round" d="M139.012 45.785l.707-3.543h48.177l.71 3.543-.71 3.543h-48.177l-.707-3.543" stroke="#000" stroke-linecap="round" stroke-miterlimit="10" stroke-width=".664" fill="#00acef"/><use y="47.859" x="156.334" xlink:href="#n"/><use y="47.859" x="159.323" xlink:href="#o"/><use y="47.859" x="162.312" xlink:href="#p"/><use y="47.859" x="165.3" xlink:href="#q"/><use y="47.859" x="168.289" xlink:href="#s"/><path stroke-linejoin="round" d="M188.606 45.785l.71-3.543h5.66l.71 3.543-.71 3.543h-5.66l-.71-3.543" stroke="#000" stroke-linecap="round" stroke-miterlimit="10" stroke-width=".664" fill="#7f7f7f"/><path stroke-linejoin="round" d="M195.686 45.785l.71-3.543h48.18l.71 3.543-.71 3.543h-48.18l-.71-3.543" stroke="#000" stroke-linecap="round" stroke-miterlimit="10" stroke-width=".664" fill="#00acef"/><use y="47.859" x="213.01" xlink:href="#n"/><use y="47.859" x="215.999" xlink:href="#o"/><use y="47.859" x="218.988" xlink:href="#p"/><use y="47.859" x="221.976" xlink:href="#q"/><use y="47.859" x="224.965" xlink:href="#t"/><path stroke-linejoin="round" d="M245.286 45.785l.7-3.543h5.67l.71 3.543-.71 3.543h-5.67l-.7-3.543" stroke="#000" stroke-linecap="round" stroke-miterlimit="10" stroke-width=".664" fill="#7f7f7f"/><path stroke-linejoin="round" d="M252.366 45.785l.71-3.543h48.17l.71 3.543-.71 3.543h-48.17l-.71-3.543" stroke="#000" stroke-linecap="round" stroke-miterlimit="10" stroke-width=".664" fill="#00acef"/><use y="47.859" x="269.687" xlink:href="#n"/><use y="47.859" x="272.676" xlink:href="#o"/><use y="47.859" x="275.665" xlink:href="#p"/><use y="47.859" x="278.653" xlink:href="#q"/><use y="47.859" x="281.642" xlink:href="#u"/><path stroke-linejoin="round" d="M301.956 45.785l.71-3.543h5.67l.71 3.543-.71 3.543h-5.67l-.71-3.543" stroke="#000" stroke-linecap="round" stroke-miterlimit="10" stroke-width=".664" fill="#7f7f7f"/><path stroke-linejoin="round" d="M309.046 45.785l.7-3.543h48.18l.71 3.543-.71 3.543h-48.18l-.7-3.543" stroke="#000" stroke-linecap="round" stroke-miterlimit="10" stroke-width=".664" fill="#ff7f00"/><use y="47.859" x="326.363" xlink:href="#n"/><use y="47.859" x="329.352" xlink:href="#r"/><use y="47.859" x="332.341" xlink:href="#q"/><use y="47.859" x="335.329" xlink:href="#p"/><use y="47.859" x="338.318" xlink:href="#o"/><path stroke-linejoin="round" d="M358.636 45.785l.71-3.543h5.67l.7 3.543-.7 3.543h-5.67l-.71-3.543" stroke="#000" stroke-linecap="round" stroke-miterlimit="10" stroke-width=".664" fill="#7f7f7f"/><path stroke-linejoin="round" d="M365.716 45.785l.71-3.543h48.18l.71 3.543-.71 3.543h-48.18l-.71-3.543" stroke="#000" stroke-linecap="round" stroke-miterlimit="10" stroke-width=".664" fill="#00acef"/><use y="47.859" x="383.04" xlink:href="#n"/><use y="47.859" x="386.029" xlink:href="#o"/><use y="47.859" x="389.018" xlink:href="#p"/><use y="47.859" x="392.006" xlink:href="#q"/><use y="47.859" x="394.995" xlink:href="#v"/><path stroke-linejoin="round" d="M415.316 45.785h6.37" stroke="red" stroke-linecap="round" stroke-miterlimit="10" stroke-width=".664" fill="none"/><use y="63.495" x="40.003" xlink:href="#w"/><use y="63.495" x="47.198" xlink:href="#x"/><use y="63.495" x="51.986" xlink:href="#y"/><use y="63.495" x="55.584" xlink:href="#x"/><path stroke-linejoin="round" d="M67.457 59.953h46.051" stroke="#00f" stroke-linecap="round" stroke-miterlimit="10" stroke-width=".664" fill="none"/><path stroke-linejoin="round" d="M113.508 59.953l.707-3.543h6.375l.711 3.543-.711 3.543h-6.375l-.707-3.543" stroke="#000" stroke-linecap="round" stroke-miterlimit="10" stroke-width=".664" fill="none"/><use y="61.912" x="114.413" xlink:href="#z"/><use y="61.912" x="117.402" xlink:href="#z"/><path stroke-linejoin="round" d="M121.301 59.953h48.885" stroke="#00f" stroke-linecap="round" stroke-miterlimit="10" stroke-width=".664" fill="none"/><path stroke-linejoin="round" d="M170.186 59.953l.7-3.543h6.38l.71 3.543-.71 3.543h-6.38l-.7-3.543" stroke="#000" stroke-linecap="round" stroke-miterlimit="10" stroke-width=".664" fill="none"/><use y="61.281" x="171.314" xlink:href="#A"/><use y="61.281" x="173.97" xlink:href="#B"/><path stroke-linejoin="round" d="M177.976 59.953h48.88" stroke="#00f" stroke-linecap="round" stroke-miterlimit="10" stroke-width=".664" fill="none"/><path stroke-linejoin="round" d="M226.856 59.953l.71-3.543h6.38l.71 3.543-.71 3.543h-6.38l-.71-3.543" stroke="#000" stroke-linecap="round" stroke-miterlimit="10" stroke-width=".664" fill="none"/><use y="61.912" x="227.766" xlink:href="#p"/><use y="61.912" x="230.755" xlink:href="#o"/><path stroke-linejoin="round" d="M234.656 59.953h48.88" stroke="#00f" stroke-linecap="round" stroke-miterlimit="10" stroke-width=".664" fill="none"/><path stroke-linejoin="round" d="M283.536 59.953l.71-3.543h6.38l.71 3.543-.71 3.543h-6.38l-.71-3.543" stroke="#000" stroke-linecap="round" stroke-miterlimit="10" stroke-width=".664" fill="none"/><use y="61.912" x="284.442" xlink:href="#r"/><use y="61.912" x="287.431" xlink:href="#q"/><path stroke-linejoin="round" d="M291.336 59.953h38.25" stroke="#00f" stroke-linecap="round" stroke-miterlimit="10" stroke-width=".664" fill="none"/><path stroke-linejoin="round" d="M329.586 59.953l.71-3.543h27.63l.71 3.543-.71 3.543h-27.63l-.71-3.543" stroke="#000" stroke-linecap="round" stroke-miterlimit="10" stroke-width=".664" fill="none"/><use y="62.028" x="330.783" xlink:href="#C"/><use y="62.028" x="334.601" xlink:href="#B"/><use y="62.028" x="337.474" xlink:href="#D"/><use y="62.028" x="338.902" xlink:href="#E"/><use y="62.028" x="341.99" xlink:href="#A"/><use y="62.028" x="346.637" xlink:href="#F"/><use y="62.028" x="349.626" xlink:href="#G"/><use y="62.028" x="353.449" xlink:href="#H"/><path stroke-linejoin="round" d="M358.636 59.953h38.25" stroke="#00f" stroke-linecap="round" stroke-miterlimit="10" stroke-width=".664" fill="none"/><path stroke-linejoin="round" d="M396.886 59.953l.72-3.543h6.37l.71 3.543-.71 3.543h-6.37l-.72-3.543" stroke="#000" stroke-linecap="round" stroke-miterlimit="10" stroke-width=".664" fill="none"/><use y="61.912" x="397.962" xlink:href="#q"/><use y="61.912" x="400.951" xlink:href="#I"/><path stroke-linejoin="round" d="M404.686 59.953h17" stroke="#00f" stroke-linecap="round" stroke-miterlimit="10" stroke-width=".664" fill="none"/><use y="77.664" x="39.574" xlink:href="#J"/><use y="77.664" x="46.008" xlink:href="#l"/><use y="77.664" x="50.435" xlink:href="#x"/><use y="77.664" x="55.223" xlink:href="#j"/><g stroke-linejoin="round" stroke-linecap="round" stroke-miterlimit="10" stroke-width=".664" fill="none"><path d="M67.457 74.121h7.082" stroke="red"/><path d="M74.54 74.121l.354 3.543h233.44l.71-7.082h48.88l.71 7.082h55.97" stroke="#000"/><path d="M414.606 77.664l.35-3.543h6.73" stroke="red"/></g><use y="91.833" x="14.93" xlink:href="#e"/><use y="91.833" x="21.295" xlink:href="#K"/><use y="91.833" x="26.443" xlink:href="#L"/><use y="91.833" x="28.823" xlink:href="#M"/><use y="91.833" x="37.288" xlink:href="#m"/><use y="91.833" x="41.107" xlink:href="#l"/><use y="91.833" x="45.534" xlink:href="#N"/><use y="91.833" x="47.914" xlink:href="#l"/><use y="91.833" x="52.342" xlink:href="#O"/><use y="91.833" x="56.769" xlink:href="#y"/><g stroke-linejoin="round" stroke-linecap="round" stroke-miterlimit="10" stroke-width=".664" fill="none"><path d="M67.457 88.293h7.082" stroke="red"/><path d="M74.54 88.293l.354-3.543h13.817l.708 7.086h41.8l.708-7.086h13.46l.708 7.086h41.802l.71-7.086h13.46l.71 7.086h41.8l.71-7.086h13.46l.7 7.086h41.8l.71-7.086h13.46l.71 7.086h41.8l.71-7.086h13.46l.71 7.086h41.8" stroke="#000"/><path d="M414.606 91.836l.35-3.543h6.73" stroke="red"/></g><use y="106.002" x="37.429" xlink:href="#P"/><use y="106.002" x="46.56" xlink:href="#k"/><use y="106.002" x="49.964" xlink:href="#L"/><use y="106.002" x="52.344" xlink:href="#y"/><use y="106.002" x="55.942" xlink:href="#l"/><g stroke-linejoin="round" stroke-linecap="round" stroke-miterlimit="10" stroke-width=".664" fill="none"><path d="M67.457 102.461h7.082" stroke="red"/><path d="M74.54 102.461l.354-3.543h254.69l.71 7.086h20.55l.7-7.086h63.06" stroke="#000"/><path d="M414.606 98.918l.35 3.543h6.73" stroke="red"/></g><use y="120.172" x="15.954" xlink:href="#Q"/><use y="120.172" x="18.722" xlink:href="#R"/><use y="120.172" x="23.869" xlink:href="#m"/><use y="120.172" x="27.688" xlink:href="#y"/><use y="120.172" x="31.285" xlink:href="#k"/><use y="120.172" x="34.69" xlink:href="#S"/><use y="120.172" x="39.837" xlink:href="#O"/><use y="120.172" x="44.265" xlink:href="#y"/><use y="120.172" x="47.862" xlink:href="#L"/><use y="120.172" x="50.242" xlink:href="#T"/><use y="120.172" x="55.224" xlink:href="#R"/><path stroke-linejoin="round" d="M67.457 116.629h7.082" stroke="red" stroke-linecap="round" stroke-miterlimit="10" stroke-width=".664" fill="none"/><path stroke-linejoin="round" d="M74.54 116.629l.71-3.539h55.969l.707 3.539-.707 3.543H75.25l-.71-3.543" stroke="#000" stroke-linecap="round" stroke-miterlimit="10" stroke-width=".664" fill="none"/><use y="117.377" x="98.65" xlink:href="#U"/><use y="117.377" x="101.739" xlink:href="#F"/><use y="117.377" x="104.727" xlink:href="#V"/><path stroke-linejoin="round" d="M131.926 116.629l.707-3.539h225.29l.71 3.539-.71 3.543h-225.29l-.71-3.543" stroke="#000" stroke-linecap="round" stroke-miterlimit="10" stroke-width=".664" fill="none"/><use y="118.124" x="228.964" xlink:href="#D"/><use y="118.124" x="230.392" xlink:href="#W"/><use y="118.124" x="235.471" xlink:href="#X"/><use y="118.124" x="237.796" xlink:href="#n"/><use y="118.124" x="240.785" xlink:href="#r"/><use y="118.124" x="243.773" xlink:href="#q"/><use y="118.124" x="246.762" xlink:href="#p"/><use y="118.124" x="249.751" xlink:href="#o"/><use y="118.124" x="252.74" xlink:href="#Y"/><use y="118.124" x="255.064" xlink:href="#Z"/><use y="118.124" x="258.721" xlink:href="#B"/><path stroke-linejoin="round" d="M358.636 116.629l.71-3.539h55.26l.71 3.539-.71 3.543h-55.26l-.71-3.543" stroke="#000" stroke-linecap="round" stroke-miterlimit="10" stroke-width=".664" fill="none"/><use y="118.66" x="380.95" xlink:href="#aa"/><use y="118.66" x="382.378" xlink:href="#U"/><use y="118.66" x="385.467" xlink:href="#I"/><use y="118.66" x="390.114" xlink:href="#B"/><path stroke-linejoin="round" d="M415.316 116.629h6.37" stroke="red" stroke-linecap="round" stroke-miterlimit="10" stroke-width=".664" fill="none"/><text font-size="30" y="132.636" x="98.559" font-family="sans-serif" word-spacing="0" letter-spacing="0"><tspan font-size="10" y="132.636" x="98.559" stroke-width=".75" fill="green">Correct</tspan></text></svg>