<svg xmlns="http://www.w3.org/2000/svg" height="84.307" width="575.533" version="1.2" xmlns:xlink="http://www.w3.org/1999/xlink" viewBox="0 0 431.646 63.23"><defs><symbol id="a" overflow="visible"><path d="M3.703-1.703h.985v-.61h-.985v-4.234h-.906L.28-2.313v.61h2.64L2.923 0h.781zm-2.64-.61c.515-.859 1.921-3.218 1.921-3.78v3.78z"/></symbol><symbol id="b" overflow="visible"><path d="M5.281-3.531c-.343.906-.812 2.14-.922 2.61h-.015c-.047-.22-.172-.579-.313-1L2.47-6.048l-.344-.875H1V0h.781v-6.187c.063.328.469 1.406.719 2.093L3.984-.219h.72L6.03-3.688c.313-.812.407-1.062.485-1.265.093-.297.359-1.016.406-1.234h.016V0h.78v-6.922h-1.14z"/></symbol><symbol id="c" overflow="visible"><path d="M6.11-6.922h-.891v3.031h-3.39v-3.03H.937V0h.89v-3.297h3.39V0h.891z"/></symbol><symbol id="d" overflow="visible"><path d="M3.984-4.031v-.39H.422v.577h2.515L.281-.406V0H4v-.625H2.547c-.125 0-.25.016-.36.016h-.859z"/></symbol><symbol id="e" overflow="visible"><path d="M5.797-1.14c-.578.39-.922.609-1.906.609-1.438 0-2.329-1.5-2.329-2.938 0-1.36.813-2.922 2.344-2.922.703 0 1.157.172 1.703.516l.141-.813c-.422-.203-1.188-.343-1.828-.343C2.078-7.031.656-5.47.656-3.375.656-1.797 1.844.109 3.922.109c.906 0 1.297-.156 1.937-.562z"/></symbol><symbol id="f" overflow="visible"><path d="M1.828-6.922h-.89V0h4.03v-.656c-.874.015-1.765.015-2.655.015h-.485z"/></symbol><symbol id="g" overflow="visible"><path d="M3.672-4.188l2.672-2.734h-.922L1.797-3.219v-3.703H.953V0h.844v-2.266l1.328-1.359L5.578 0h.906z"/></symbol><symbol id="h" overflow="visible"><path d="M2.984-6.766h-.203c-.594.61-1.422.641-1.89.672v.578c.328-.015.797-.03 1.297-.25v5.188H.953V0h3.281v-.578h-1.25z"/></symbol><symbol id="i" overflow="visible"><path d="M1.828-6.922h-.89V0h.89z"/></symbol><symbol id="j" overflow="visible"><path d="M4.344-2.969c0-.656-.157-1.562-1.375-1.562-.89 0-1.39.672-1.438.75v-.703H.812V0h.766v-2.438c0-.656.25-1.484 1.016-1.484.953 0 .969.703.969 1.016V0h.78z"/></symbol><symbol id="k" overflow="visible"><path d="M3.422-4.281a3.19 3.19 0 0 0-1.438-.313c-.25 0-1.656 0-1.656 1.297 0 .5.297.813.547 1 .297.219.516.266 1.063.375.359.063.937.188.937.719 0 .687-.781.687-.938.687C1.141-.516.579-.89.407-1L.28-.328c.313.156.86.437 1.672.437.188 0 .735 0 1.156-.312.313-.25.485-.64.485-1.078 0-.547-.375-.875-.39-.907-.391-.359-.657-.421-1.157-.5-.547-.109-1.016-.218-1.016-.703C1.03-4 1.75-4 1.89-4c.312 0 .843.031 1.406.375z"/></symbol><symbol id="l" overflow="visible"><path d="M1.75-3.844h1.406v-.578H1.75v-1.266h-.687v1.266H.188v.578h.843v2.656c0 .594.14 1.297.828 1.297s1.204-.25 1.454-.375l-.157-.593a1.407 1.407 0 0 1-.906.328c-.36 0-.5-.297-.5-.828z"/></symbol><symbol id="m" overflow="visible"><path d="M1.563-2.14c0-.985.718-1.704 1.703-1.735v-.656c-.891 0-1.438.5-1.75.953v-.906H.813V0h.75z"/></symbol><symbol id="n" overflow="visible"><path d="M4.344-4.422h-.782v2.89C3.563-.781 3-.437 2.36-.437c-.703 0-.78-.265-.78-.687v-3.297H.812v3.328C.813-.375 1.03.11 1.859.11c.532 0 1.235-.156 1.735-.593V0h.75z"/></symbol><symbol id="o" overflow="visible"><path d="M4.094-4.172c-.594-.328-.938-.422-1.547-.422C1.172-4.594.359-3.39.359-2.219.36-.984 1.266.11 2.516.11c.53 0 1.078-.14 1.625-.515l-.063-.657a2.517 2.517 0 0 1-1.562.532c-.828 0-1.375-.719-1.375-1.688 0-.781.359-1.734 1.421-1.734.516 0 .86.078 1.407.437z"/></symbol><symbol id="p" overflow="visible"><path d="M1.625-6.781h-.89v.89h.89zm-.063 2.36h-.75V0h.75z"/></symbol><symbol id="q" overflow="visible"><path d="M4.672-2.188c0-1.343-1-2.406-2.172-2.406C1.266-4.594.297-3.5.297-2.187.297-.875 1.313.108 2.484.108c1.188 0 2.188-1 2.188-2.296zM2.484-.53c-.687 0-1.406-.563-1.406-1.766s.75-1.687 1.406-1.687c.703 0 1.407.515 1.407 1.687 0 1.188-.672 1.766-1.407 1.766z"/></symbol><symbol id="r" overflow="visible"><path d="M.969-4.063H.438v.532h.53zM.938-2.655H.483V0h.454z"/></symbol><symbol id="s" overflow="visible"><path d="M2.61-1.781c0-.39-.094-.938-.829-.938-.531 0-.828.406-.86.453v-.422H.485V0h.47v-1.469c0-.39.14-.89.609-.89.562 0 .578.422.578.625V0h.468z"/></symbol><symbol id="t" overflow="visible"><path d="M1.047-2.313h.844v-.343h-.844v-.766H.64v.766H.109v.344h.5V-.72c0 .36.094.782.5.782.422 0 .735-.141.875-.22l-.093-.359a.866.866 0 0 1-.532.204c-.234 0-.312-.188-.312-.5z"/></symbol><symbol id="u" overflow="visible"><path d="M2.484-1.313c0-.203-.015-.656-.25-1.015a.982.982 0 0 0-.828-.438c-.656 0-1.203.641-1.203 1.407C.203-.563.781.062 1.5.062c.375 0 .719-.14.953-.312l-.031-.39a1.473 1.473 0 0 1-.906.343C1.03-.297.64-.719.625-1.312zM.656-1.64c.094-.453.422-.75.75-.75.313 0 .656.203.735.75z"/></symbol><symbol id="v" overflow="visible"><path d="M.938-1.281a1.02 1.02 0 0 1 1.015-1.047v-.39c-.531 0-.86.296-1.047.577v-.547H.484V0h.454z"/></symbol><symbol id="w" overflow="visible"><path d="M2.61-2.656h-.47v1.734c0 .453-.343.656-.718.656C1-.266.953-.422.953-.672v-1.984H.484v2c0 .437.141.719.641.719.313 0 .734-.094 1.031-.344V0h.453z"/></symbol><symbol id="x" overflow="visible"><path d="M.953-.281c.188.172.453.344.813.344.578 0 1.109-.579 1.109-1.391 0-.719-.375-1.39-.953-1.39-.36 0-.703.124-.985.359v-.297H.484v3.812h.47zm0-1.72a.785.785 0 0 1 .64-.343c.454 0 .813.453.813 1.016 0 .61-.422 1.031-.875 1.031-.234 0-.39-.125-.515-.281C.953-.672.953-.688.953-.797z"/></symbol><symbol id="y" overflow="visible"><path d="M2.594-4.156H2.14v1.765a1.327 1.327 0 0 0-.86-.328c-.593 0-1.062.625-1.062 1.39C.219-.546.672.064 1.25.064c.188 0 .547-.047.875-.375V0h.469zM2.125-.828c0 .078 0 .187-.188.36a.661.661 0 0 1-.453.171c-.359 0-.797-.281-.797-1.031 0-.781.516-1.031.86-1.031.266 0 .453.14.578.328z"/></symbol><symbol id="z" overflow="visible"><path d="M2.047-2.563c-.313-.14-.547-.203-.86-.203-.14 0-.984 0-.984.797 0 .281.172.485.313.594.187.125.328.156.656.219.203.047.562.11.562.437 0 .406-.484.406-.562.406-.484 0-.828-.218-.938-.296l-.062.406c.187.094.515.266 1 .266.11 0 .437 0 .687-.188a.81.81 0 0 0 .297-.64c0-.329-.219-.532-.234-.547-.235-.22-.39-.25-.688-.297-.343-.078-.609-.125-.609-.422 0-.375.422-.375.5-.375.203 0 .516.031.86.234z"/></symbol><symbol id="A" overflow="visible"><path d="M2.39-1.734c0-.61-.437-1.032-.984-1.032-.39 0-.672.11-.953.266l.047.39c.313-.218.61-.296.906-.296.282 0 .516.234.516.687v.25c-.906.016-1.656.266-1.656.797 0 .25.156.734.687.734.078 0 .64-.015.985-.28V0h.453zm-.468.937c0 .125 0 .266-.203.39a1.13 1.13 0 0 1-.469.11c-.281 0-.563-.14-.563-.39 0-.422.97-.47 1.235-.47z"/></symbol><symbol id="B" overflow="visible"><path d="M2.453-2.5c-.36-.203-.562-.266-.922-.266C.703-2.766.22-2.03.22-1.328c0 .734.547 1.39 1.297 1.39.312 0 .64-.078.968-.296l-.03-.407a1.557 1.557 0 0 1-.938.329c-.5 0-.828-.438-.828-1.016 0-.469.218-1.047.843-1.047.313 0 .516.047.844.266z"/></symbol><symbol id="C" overflow="visible"><path d="M2.61-1.781c0-.39-.094-.938-.829-.938-.375 0-.656.188-.844.422v-1.86H.484V0h.47v-1.469c0-.39.14-.89.608-.89.563 0 .579.422.579.625V0h.468z"/></symbol><symbol id="D" overflow="visible"><path d="M.938-4.156H.483V0h.454z"/></symbol></defs><g stroke-opacity=".5" stroke-miterlimit="10" stroke-width=".797" fill="none"><path d="M102.879 10.359v42.508" stroke="red"/><path d="M99.336 10.359v42.508" stroke="#00f"/><path d="M326.046 10.359v42.508" stroke="#ff7f00"/><path d="M329.586 10.359v42.508" stroke="red"/></g><use y="20.988" x="9.963" xlink:href="#a"/><use y="20.988" x="18.262" xlink:href="#b"/><use y="20.988" x="26.979" xlink:href="#c"/><use y="20.988" x="34.036" xlink:href="#d"/><use y="20.988" x="41.694" xlink:href="#e"/><use y="20.988" x="48.059" xlink:href="#f"/><use y="20.988" x="53.456" xlink:href="#g"/><path stroke-linejoin="round" d="M67.457 20.988h7.082v-7.086h7.086v7.086h7.086v-7.086h7.082v7.086h7.086v-7.086h7.086v7.086h7.082v-7.086h7.086v7.086h7.086v-7.086h7.082v7.086h7.086v-7.086h7.086v7.086h7.082v-7.086h7.086v7.086h7.085v-7.086h7.08v7.086h7.09v-7.086h7.08v7.086h7.09v-7.086h7.08v7.086h7.09v-7.086h7.08v7.086h7.09v-7.086h7.08v7.086h7.09v-7.086h7.08v7.086h7.09v-7.086h7.08v7.086h7.08v-7.086h7.09v7.086h7.09v-7.086h7.08v7.086h7.08v-7.086h7.09v7.086h7.08v-7.086h7.09v7.086h7.08v-7.086h7.09v7.086h7.08v-7.086h7.09v7.086h7.08v-7.086h7.09v7.086h7.08v-7.086h7.08v7.086h7.09v-7.086h7.09v7.086h7.08v-7.086h7.08v7.086h7.09v-7.086h7.08" stroke="#000" stroke-linecap="round" stroke-miterlimit="10" stroke-width=".664" fill="none"/><use y="35.157" x="9.963" xlink:href="#h"/><use y="35.157" x="18.262" xlink:href="#b"/><use y="35.157" x="26.979" xlink:href="#c"/><use y="35.157" x="34.036" xlink:href="#d"/><use y="35.157" x="41.694" xlink:href="#e"/><use y="35.157" x="48.059" xlink:href="#f"/><use y="35.157" x="53.456" xlink:href="#g"/><path stroke-linejoin="round" d="M67.457 35.156h7.082v-7.082h28.34v7.082h28.34v-7.082h28.336v7.082h28.341v-7.082h28.34v7.082h28.34v-7.082h28.33v7.082h28.34v-7.082h28.34v7.082h28.34v-7.082h28.34v7.082h28.34v-7.082h7.08" stroke="#000" stroke-linecap="round" stroke-miterlimit="10" stroke-width=".664" fill="none"/><use y="49.327" x="15.954" xlink:href="#i"/><use y="49.327" x="18.722" xlink:href="#j"/><use y="49.327" x="23.869" xlink:href="#k"/><use y="49.327" x="27.688" xlink:href="#l"/><use y="49.327" x="31.285" xlink:href="#m"/><use y="49.327" x="34.69" xlink:href="#n"/><use y="49.327" x="39.837" xlink:href="#o"/><use y="49.327" x="44.265" xlink:href="#l"/><use y="49.327" x="47.862" xlink:href="#p"/><use y="49.327" x="50.242" xlink:href="#q"/><use y="49.327" x="55.224" xlink:href="#j"/><path stroke-linejoin="round" d="M67.457 45.785h7.082" stroke="red" stroke-linecap="round" stroke-miterlimit="10" stroke-width=".664" fill="none"/><path stroke-linejoin="round" d="M74.54 45.785l.71-3.543h282.68l.71 3.543-.71 3.543H75.25l-.707-3.543" stroke="#000" stroke-linecap="round" stroke-miterlimit="10" stroke-width=".664" fill="none"/><use y="47.279" x="194.377" xlink:href="#r"/><use y="47.279" x="195.805" xlink:href="#s"/><use y="47.279" x="198.894" xlink:href="#t"/><use y="47.279" x="201.052" xlink:href="#u"/><use y="47.279" x="203.709" xlink:href="#v"/><use y="47.279" x="205.751" xlink:href="#v"/><use y="47.279" x="207.794" xlink:href="#w"/><use y="47.279" x="210.882" xlink:href="#x"/><use y="47.279" x="213.971" xlink:href="#t"/><g><use y="47.279" x="218.12" xlink:href="#y"/><use y="47.279" x="221.208" xlink:href="#r"/><use y="47.279" x="222.637" xlink:href="#z"/><use y="47.279" x="224.928" xlink:href="#x"/><use y="47.279" x="228.016" xlink:href="#A"/><use y="47.279" x="230.889" xlink:href="#t"/><use y="47.279" x="233.048" xlink:href="#B"/><use y="47.279" x="235.704" xlink:href="#C"/></g><path stroke-linejoin="round" d="M358.636 45.785l.71-3.543h55.26l.71 3.543-.71 3.543h-55.26l-.71-3.543" stroke="#000" stroke-linecap="round" stroke-miterlimit="10" stroke-width=".664" fill="none"/><g><use y="47.279" x="365.965" xlink:href="#r"/><use y="47.279" x="367.393" xlink:href="#s"/><use y="47.279" x="370.482" xlink:href="#t"/><use y="47.279" x="372.64" xlink:href="#u"/><use y="47.279" x="375.297" xlink:href="#v"/><use y="47.279" x="377.339" xlink:href="#v"/><use y="47.279" x="379.382" xlink:href="#w"/><use y="47.279" x="382.47" xlink:href="#x"/><use y="47.279" x="385.559" xlink:href="#t"/></g><g><use y="47.279" x="389.708" xlink:href="#C"/><use y="47.279" x="392.796" xlink:href="#A"/><use y="47.279" x="395.669" xlink:href="#s"/><use y="47.279" x="398.758" xlink:href="#y"/><use y="47.279" x="401.846" xlink:href="#D"/><use y="47.279" x="403.275" xlink:href="#u"/><use y="47.279" x="405.931" xlink:href="#v"/></g><path stroke-linejoin="round" d="M415.316 45.785h6.37" stroke="red" stroke-linecap="round" stroke-miterlimit="10" stroke-width=".664" fill="none"/><text font-size="30" y="61.322" x="310.561" font-family="sans-serif" fill="green" word-spacing="0" letter-spacing="0"><tspan font-size="10" y="61.322" x="310.561">Correct</tspan></text></svg>